<svg xmlns="http://www.w3.org/2000/svg" xmlns:xlink="http://www.w3.org/1999/xlink" width="458" height="174" viewBox="0 0 458 174">
  <defs>
    <clipPath id="clip-path">
      <rect x="71" y="14" width="458" height="174" fill="none"/>
    </clipPath>
  </defs>
  <g id="Scroll_Group_7" data-name="Scroll Group 7" transform="translate(-71 -14)" clip-path="url(#clip-path)" style="isolation: isolate">
    <g id="Group_191" data-name="Group 191" transform="translate(-674.5 -365)">
      <text id="_404" data-name="404" transform="translate(674.5 365)" font-size="250" font-family="AcuminPro-Bold, Acumin Pro" font-weight="700" letter-spacing="-0.04em"><tspan x="68.625" y="184">404</tspan></text>
      <g id="Group_187" data-name="Group 187" transform="translate(2618.414 3245.522) rotate(180)">
        <path id="Path_71" data-name="Path 71" d="M-469.279,2892.662s7.811-11.641,14.711,0c1.911,3.225,3.961,4.663,6.234,5.11,4.817.975,9.363-5.11,9.363-5.11s7.432-11.8,15.5,0" transform="translate(1941.381 -106.473)" fill="none" stroke="#f5ea04" stroke-width="6"/>
        <path id="Path_72" data-name="Path 72" d="M-469.279,2892.662s7.811-11.641,14.711,0,15.6,0,15.6,0,7.432-11.8,15.5,0" transform="translate(1941.381 -91.385)" fill="none" stroke="#f5ea04" stroke-width="6"/>
        <path id="Path_73" data-name="Path 73" d="M-469.279,2892.662s7.811-11.641,14.711,0,15.6,0,15.6,0,7.432-11.8,15.5,0" transform="translate(1941.381 -75.755)" fill="none" stroke="#f5ea04" stroke-width="6"/>
        <g id="Group_96" data-name="Group 96" transform="translate(1415.973 2771.961)">
          <g id="Group_95" data-name="Group 95" transform="translate(0)">
            <g id="Rectangle_92" data-name="Rectangle 92" transform="translate(32.222 19.022) rotate(90)" stroke="#000" stroke-width="10">
              <rect width="16.315" height="32.222" stroke="none"/>
              <rect x="5" y="5" width="6.315" height="22.222" fill="none"/>
            </g>
            <g id="Path_70" data-name="Path 70" transform="translate(59.988 0) rotate(90)">
              <path d="M 26.84638404846191 30.3562183380127 C 22.53617286682129 30.3562183380127 18.92970275878906 29.07937240600586 15.82090187072754 26.45272445678711 C 13.16737270355225 24.21073722839355 10.89636039733887 20.98354911804199 9.070960998535156 16.86080741882324 C 7.29763126373291 12.85564231872559 6.300478458404541 8.77032470703125 5.776254653930664 6.048442363739014 C 5.711514949798584 5.712308406829834 5.651830673217773 5.386271953582764 5.596825122833252 5.071409702301025 C 9.572210311889648 5.03000545501709 15.87882041931152 4.999995231628418 24.54329109191895 4.999995231628418 C 34.52482223510742 4.999995231628418 42.97001266479492 5.03842306137085 48.11180114746094 5.08917236328125 C 47.97579574584961 5.833188533782959 47.81647491455078 6.632521629333496 47.6293830871582 7.474524974822998 C 46.75920867919922 11.39077186584473 45.58334732055664 14.91398334503174 44.13446807861328 17.9462776184082 C 42.31440734863281 21.75538444519043 40.0882682800293 24.72652435302734 37.51789093017578 26.77717208862305 C 34.51817321777344 29.17036056518555 31.05316162109375 30.34101867675781 26.92485427856445 30.35607719421387 L 26.84638404846191 30.3562183380127 Z" stroke="none"/>
              <path d="M 24.54270172119141 10.00000381469727 C 19.51863098144531 10.00000381469727 15.28525161743164 10.01008415222168 11.84808731079102 10.02649116516113 C 13.91519546508789 17.09686279296875 18.19577407836914 25.35617065429688 26.90661811828613 25.35610198974609 C 35.18141174316406 25.32593536376953 39.53037261962891 17.82423782348633 41.81475448608398 10.04286003112793 C 37.06346893310547 10.01689147949219 31.11712455749512 10.00000381469727 24.54270172119141 10.00000381469727 M 24.54270362854004 0 C 38.82611083984375 0 54.01416015625 0.08530807495117188 53.88065338134766 0.2220878601074219 C 53.62950134277344 0.4794197082519531 51.81296920776367 35.2653694152832 26.94306945800781 35.35603713989258 C 2.072750091552734 35.44671630859375 -0.1304168701171875 0.5546226501464844 0.00548553466796875 0.2220878601074219 C 0.06915283203125 0.066314697265625 11.95513534545898 0 24.54270362854004 0 Z" stroke="none" fill="#000"/>
            </g>
          </g>
        </g>
      </g>
      <g id="Group_188" data-name="Group 188" transform="translate(2490.414 3245.082) rotate(180)">
        <path id="Path_71-2" data-name="Path 71" d="M-469.279,2892.662s7.811-11.641,14.711,0c1.911,3.225,3.961,4.663,6.234,5.11,4.817.975,9.363-5.11,9.363-5.11s7.432-11.8,15.5,0" transform="translate(1941.381 -106.473)" fill="none" stroke="#f5ea04" stroke-width="6"/>
        <path id="Path_72-2" data-name="Path 72" d="M-469.279,2892.662s7.811-11.641,14.711,0,15.6,0,15.6,0,7.432-11.8,15.5,0" transform="translate(1941.381 -91.385)" fill="none" stroke="#f5ea04" stroke-width="6"/>
        <path id="Path_73-2" data-name="Path 73" d="M-469.279,2892.662s7.811-11.641,14.711,0,15.6,0,15.6,0,7.432-11.8,15.5,0" transform="translate(1941.381 -75.755)" fill="none" stroke="#f5ea04" stroke-width="6"/>
      </g>
      <g id="Group_189" data-name="Group 189" transform="translate(-584.601 -2357.943)">
        <path id="Path_71-3" data-name="Path 71" d="M-469.279,2892.662s7.811-11.641,14.711,0c1.911,3.225,3.961,4.663,6.234,5.11,4.817.975,9.363-5.11,9.363-5.11s7.432-11.8,15.5,0" transform="translate(1941.381 -106.473)" fill="none" stroke="#f5ea04" stroke-width="6"/>
        <path id="Path_72-3" data-name="Path 72" d="M-469.279,2892.662s7.811-11.641,14.711,0,15.6,0,15.6,0,7.432-11.8,15.5,0" transform="translate(1941.381 -91.385)" fill="none" stroke="#f5ea04" stroke-width="6"/>
        <path id="Path_73-3" data-name="Path 73" d="M-469.279,2892.662s7.811-11.641,14.711,0,15.6,0,15.6,0,7.432-11.8,15.5,0" transform="translate(1941.381 -75.755)" fill="none" stroke="#f5ea04" stroke-width="6"/>
      </g>
      <g id="Group_190" data-name="Group 190" transform="translate(2340.416 3245.082) rotate(180)">
        <path id="Path_71-4" data-name="Path 71" d="M-469.279,2892.662s7.811-11.641,14.711,0c1.911,3.225,3.961,4.663,6.234,5.11,4.817.975,9.363-5.11,9.363-5.11s7.432-11.8,15.5,0" transform="translate(1941.381 -106.473)" fill="none" stroke="#f5ea04" stroke-width="6"/>
        <path id="Path_72-4" data-name="Path 72" d="M-469.279,2892.662s7.811-11.641,14.711,0,15.6,0,15.6,0,7.432-11.8,15.5,0" transform="translate(1941.381 -91.385)" fill="none" stroke="#f5ea04" stroke-width="6"/>
        <path id="Path_73-4" data-name="Path 73" d="M-469.279,2892.662s7.811-11.641,14.711,0,15.6,0,15.6,0,7.432-11.8,15.5,0" transform="translate(1941.381 -75.755)" fill="none" stroke="#f5ea04" stroke-width="6"/>
      </g>
    </g>
  </g>
</svg>
