<svg xmlns="http://www.w3.org/2000/svg" width="189.284" height="185.125" viewBox="0 0 189.284 185.125">
  <g id="Group_195" data-name="Group 195" transform="translate(-270.374 -99.87)">
    <path id="Path_79" data-name="Path 79" d="M324.962,243.848H270.374V138.034h52.649Zm-39-15.586h23.128l-1.37-74.641H285.96Z" transform="translate(0 41.148)" fill="#707070"/>
    <path id="Path_80" data-name="Path 80" d="M409.734,285H290.09l-1.831-99.843,25.9-50.263,7.087-34.253,5.713-.559c1.276-.123,12.733-1.108,21.478,2.641,10.653,4.566,13.413,20.425,13.855,23.558l.079,1.1v39.187h78Zm-104.34-15.586h92.272l22.575-87.264H346.787V127.973c-.844-5.075-3.134-10.2-4.508-10.938a25.4,25.4,0,0,0-8.194-1.515l-5.092,24.614L303.916,188.8Z" transform="translate(19.284 0)" fill="#707070"/>
  </g>
</svg>
