<svg id="Group_6" data-name="Group 6" xmlns="http://www.w3.org/2000/svg" width="36.344" height="36.344" viewBox="0 0 36.344 36.344">
  <path id="Path_8" data-name="Path 8" d="M777.059,495.652a18.172,18.172,0,1,1,18.172-18.172A18.193,18.193,0,0,1,777.059,495.652Zm0-35.242a17.07,17.07,0,1,0,17.07,17.07A17.089,17.089,0,0,0,777.059,460.409Z" transform="translate(-758.887 -459.308)" fill="#2b2e34"/>
  <path id="Path_9" data-name="Path 9" d="M779.986,469.632h1.7v-3.319a20.746,20.746,0,0,0-3.019-.263c-3.082,0-5.095,1.868-5.095,5.248v2.971h-3.425v3.9h3.425v9.376h4.215v-9.376h3.143l.6-3.9h-3.741v-2.53A1.95,1.95,0,0,1,779.986,469.632Z" transform="translate(-757.746 -458.625)" fill="#2b2e34"/>
</svg>
