<svg id="Group_5" data-name="Group 5" xmlns="http://www.w3.org/2000/svg" width="36.344" height="36.344" viewBox="0 0 36.344 36.344">
  <path id="Path_4" data-name="Path 4" d="M821.64,495.652a18.193,18.193,0,1,1,12.417-4.916A17.956,17.956,0,0,1,821.64,495.652Zm0-35.242a17.07,17.07,0,1,0,17.071,17.07A17.089,17.089,0,0,0,821.64,460.409Z" transform="translate(-803.468 -459.308)" fill="#2b2e34"/>
  <g id="Group_4" data-name="Group 4" transform="translate(9.526 9.526)">
    <path id="Path_5" data-name="Path 5" d="M820.763,467.958c-2.348,0-2.642.009-3.564.052a6.348,6.348,0,0,0-2.1.4,4.415,4.415,0,0,0-2.529,2.528,6.346,6.346,0,0,0-.4,2.1c-.042.922-.052,1.217-.052,3.565s.01,2.642.052,3.565a6.339,6.339,0,0,0,.4,2.1,4.421,4.421,0,0,0,2.529,2.529,6.323,6.323,0,0,0,2.1.4c.922.043,1.216.053,3.564.053s2.642-.01,3.565-.053a6.316,6.316,0,0,0,2.1-.4,4.42,4.42,0,0,0,2.529-2.529,6.342,6.342,0,0,0,.4-2.1c.042-.923.053-1.218.053-3.565s-.011-2.643-.053-3.565a6.349,6.349,0,0,0-.4-2.1,4.414,4.414,0,0,0-2.529-2.528,6.341,6.341,0,0,0-2.1-.4c-.923-.043-1.217-.052-3.565-.052m0,1.557c2.308,0,2.581.009,3.493.05a4.8,4.8,0,0,1,1.606.3A2.858,2.858,0,0,1,827.5,471.5a4.794,4.794,0,0,1,.3,1.6c.042.912.051,1.185.051,3.495s-.009,2.581-.051,3.493a4.809,4.809,0,0,1-.3,1.606,2.866,2.866,0,0,1-1.641,1.641,4.8,4.8,0,0,1-1.606.3c-.912.041-1.185.05-3.493.05s-2.582-.009-3.493-.05a4.81,4.81,0,0,1-1.606-.3,2.869,2.869,0,0,1-1.64-1.641,4.772,4.772,0,0,1-.3-1.606c-.042-.912-.051-1.185-.051-3.493s.009-2.583.051-3.495a4.758,4.758,0,0,1,.3-1.6,2.861,2.861,0,0,1,1.64-1.641,4.8,4.8,0,0,1,1.606-.3c.912-.041,1.185-.05,3.493-.05" transform="translate(-812.118 -467.958)" fill="#2b2e34"/>
    <path id="Path_6" data-name="Path 6" d="M820.377,479.1a2.882,2.882,0,1,1,2.882-2.882,2.883,2.883,0,0,1-2.882,2.882m0-7.322a4.439,4.439,0,1,0,4.439,4.439,4.439,4.439,0,0,0-4.439-4.439" transform="translate(-811.731 -467.571)" fill="#2b2e34"/>
    <path id="Path_7" data-name="Path 7" d="M825.292,471.712a1.038,1.038,0,1,1-1.038-1.037,1.038,1.038,0,0,1,1.038,1.037" transform="translate(-810.994 -467.683)" fill="#2b2e34"/>
  </g>
</svg>
