<svg xmlns="http://www.w3.org/2000/svg" width="488" height="149" viewBox="0 0 488 149">
  <g id="Group_219" data-name="Group 219" transform="translate(-119)">
    <g id="Group_218" data-name="Group 218">
      <rect id="Rectangle_1" data-name="Rectangle 1" width="488" height="149" transform="translate(119)" fill="#2b2e34"/>
      <g id="Group_81" data-name="Group 81" transform="translate(185.676 -28.073)">
        <path id="Path_22" data-name="Path 22" d="M90.37,92.9h16.807L131.7,70.663l2.026,1.837,8.4-7.621L131.7,55.422Z" transform="translate(21.493 1.096)" fill="#fff" fill-rule="evenodd"/>
        <path id="Path_23" data-name="Path 23" d="M186.514,91.684h17.011L167.549,59.059l-11.987,10.87,8.506,7.713,3.481-3.157Z" transform="translate(43.372 2.316)" fill="#fff" fill-rule="evenodd"/>
        <path id="Path_24" data-name="Path 24" d="M108.484,93.01h20.1l21.7-19.675,21.7,19.675h20.1l-41.794-37.9Z" transform="translate(27.572 0.991)" fill="#fff" fill-rule="evenodd"/>
        <path id="Path_25" data-name="Path 25" d="M147.654,64.239a4.037,4.037,0,0,1-.626,1.43,4.369,4.369,0,0,1-1.106,1.1,4.076,4.076,0,0,1-1.436.626v.192a4.111,4.111,0,0,1,1.436.632,4.374,4.374,0,0,1,1.106,1.106,4.037,4.037,0,0,1,.626,1.43h.192a4.075,4.075,0,0,1,.625-1.432,4.325,4.325,0,0,1,1.1-1.107,4,4,0,0,1,1.433-.629V67.4a4.042,4.042,0,0,1-1.433-.626,4.336,4.336,0,0,1-1.1-1.1,4.058,4.058,0,0,1-.625-1.43Z" transform="translate(39.654 4.055)" fill="#57575a" fill-rule="evenodd"/>
        <path id="Path_26" data-name="Path 26" d="M142.681,58.353a4.043,4.043,0,0,1-.628,1.429,4.3,4.3,0,0,1-1.106,1.1,4.059,4.059,0,0,1-1.434.626v.192a4.094,4.094,0,0,1,1.434.632,4.336,4.336,0,0,1,1.106,1.107,4.023,4.023,0,0,1,.628,1.429h.192a4.075,4.075,0,0,1,.625-1.432,4.32,4.32,0,0,1,1.1-1.107,4.01,4.01,0,0,1,1.433-.629v-.192a4.052,4.052,0,0,1-1.433-.626,4.31,4.31,0,0,1-1.1-1.1,4.062,4.062,0,0,1-.625-1.429Z" transform="translate(37.985 2.079)" fill="#57575a" fill-rule="evenodd"/>
        <path id="Path_27" data-name="Path 27" d="M153.143,58.353a4.044,4.044,0,0,1-.628,1.429,4.3,4.3,0,0,1-1.106,1.1,4.069,4.069,0,0,1-1.434.626v.192a4.1,4.1,0,0,1,1.434.632,4.335,4.335,0,0,1,1.106,1.107,4.023,4.023,0,0,1,.628,1.429h.192a4.075,4.075,0,0,1,.625-1.432,4.3,4.3,0,0,1,1.1-1.107,4.01,4.01,0,0,1,1.433-.629v-.192a4.052,4.052,0,0,1-1.433-.626,4.288,4.288,0,0,1-1.1-1.1,4.063,4.063,0,0,1-.625-1.429Z" transform="translate(41.497 2.079)" fill="#fff" fill-rule="evenodd"/>
        <path id="Path_28" data-name="Path 28" d="M147.654,52.157a4.037,4.037,0,0,1-.626,1.43,4.368,4.368,0,0,1-1.106,1.1,4.076,4.076,0,0,1-1.436.626v.192a4.111,4.111,0,0,1,1.436.632,4.374,4.374,0,0,1,1.106,1.106,4.037,4.037,0,0,1,.626,1.43h.192a4.075,4.075,0,0,1,.625-1.432,4.326,4.326,0,0,1,1.1-1.107,4,4,0,0,1,1.433-.629v-.192a4.042,4.042,0,0,1-1.433-.626,4.336,4.336,0,0,1-1.1-1.1,4.058,4.058,0,0,1-.625-1.43Z" transform="translate(39.654)" fill="#fff" fill-rule="evenodd"/>
        <path id="Path_29" data-name="Path 29" d="M59.139,101.3a2.8,2.8,0,0,1-1.429,2.429,4.469,4.469,0,0,1-2.432.767H30.186a3.827,3.827,0,0,1-2.973-1.182,2.944,2.944,0,0,1-.888-2.014H55.273V98.107H30.185a3.856,3.856,0,0,1-2.934-1.182,2.962,2.962,0,0,1-.926-2.013V91.717a2.782,2.782,0,0,1,1.39-2.46,4.4,4.4,0,0,1,2.471-.736H55.278a3.831,3.831,0,0,1,2.934,1.151,2.913,2.913,0,0,1,.927,2.045H30.192v3.195H55.279a3.83,3.83,0,0,1,2.933,1.15,2.913,2.913,0,0,1,.927,2.045Z" transform="translate(0 12.204)" fill="#fff" fill-rule="evenodd"/>
        <path id="Path_30" data-name="Path 30" d="M82.712,101.3V91.717H57.631V101.3Zm3.867,0a2.794,2.794,0,0,1-1.428,2.429,4.477,4.477,0,0,1-2.433.767H57.625a3.835,3.835,0,0,1-2.934-1.15,2.919,2.919,0,0,1-.927-2.046V91.717a2.782,2.782,0,0,1,1.39-2.46,4.407,4.407,0,0,1,2.471-.736H82.717a3.829,3.829,0,0,1,2.934,1.151,2.908,2.908,0,0,1,.927,2.045Z" transform="translate(9.208 12.204)" fill="#fff" fill-rule="evenodd"/>
        <path id="Path_31" data-name="Path 31" d="M114.017,101.3a2.794,2.794,0,0,1-1.428,2.429,4.469,4.469,0,0,1-2.432.767H85.064a3.834,3.834,0,0,1-2.934-1.15A2.917,2.917,0,0,1,81.2,101.3V91.717a2.781,2.781,0,0,1,1.392-2.46,4.419,4.419,0,0,1,2.474-.736V101.3h25.083V88.521a3.835,3.835,0,0,1,2.937,1.151,2.9,2.9,0,0,1,.928,2.045Z" transform="translate(18.417 12.204)" fill="#fff" fill-rule="evenodd"/>
        <path id="Path_32" data-name="Path 32" d="M141.457,91.717H126.983V104.5h-3.867V91.717H108.643a2.792,2.792,0,0,1,1.429-2.428,4.46,4.46,0,0,1,2.432-.768H137.6a3.831,3.831,0,0,1,2.934,1.151A2.913,2.913,0,0,1,141.457,91.717Z" transform="translate(27.626 12.204)" fill="#fff" fill-rule="evenodd"/>
        <path id="Path_33" data-name="Path 33" d="M168.9,101.3a2.766,2.766,0,0,1-1.2,2.285,4.308,4.308,0,0,1-2.669.911V98.107H139.949V104.5a4.172,4.172,0,0,1-2.745-.927,2.841,2.841,0,0,1-1.122-2.269V88.521h3.867v6.391H165.03V88.521H168.9Z" transform="translate(36.834 12.204)" fill="#fff" fill-rule="evenodd"/>
        <path id="Path_34" data-name="Path 34" d="M196.322,101.3a2.808,2.808,0,0,1-1.389,2.429,4.34,4.34,0,0,1-2.431.767h-28.98V88.521h28.941A3.851,3.851,0,0,1,195.4,89.7a2.959,2.959,0,0,1,.926,2.013H167.387v3.195h28.934v3.195H167.387V101.3Z" transform="translate(46.043 12.204)" fill="#fff" fill-rule="evenodd"/>
        <path id="Path_35" data-name="Path 35" d="M219.9,94.912V91.717H194.828v3.195Zm3.859,9.594-3.852-.008-3.859-6.391H194.828V104.5h-3.867V91.717a2.842,2.842,0,0,1,1.119-2.269,4.161,4.161,0,0,1,2.741-.927h25.088a3.866,3.866,0,0,1,2.938,1.183,2.966,2.966,0,0,1,.928,2.015v3.2a2.785,2.785,0,0,1-1.145,2.319,4.357,4.357,0,0,1-2.735.88Z" transform="translate(55.251 12.204)" fill="#fff" fill-rule="evenodd"/>
        <path id="Path_36" data-name="Path 36" d="M251.214,101.3a2.758,2.758,0,0,1-1.392,2.429,4.414,4.414,0,0,1-2.475.767V91.717H222.266V104.5a3.844,3.844,0,0,1-2.938-1.15,2.913,2.913,0,0,1-.927-2.046V91.717a2.79,2.79,0,0,1,1.428-2.428,4.46,4.46,0,0,1,2.432-.768h25.093a3.826,3.826,0,0,1,2.933,1.151,2.908,2.908,0,0,1,.927,2.045Z" transform="translate(64.46 12.204)" fill="#fff" fill-rule="evenodd"/>
        <rect id="Rectangle_76" data-name="Rectangle 76" width="3.866" height="15.976" transform="translate(36.917 124.004)" fill="#fff"/>
        <path id="Path_37" data-name="Path 37" d="M72.858,118.731a2.755,2.755,0,0,1-1.392,2.428,4.4,4.4,0,0,1-2.474.767v-12.78H43.91v12.78a3.839,3.839,0,0,1-2.937-1.15,2.907,2.907,0,0,1-.928-2.045v-9.586a2.793,2.793,0,0,1,1.428-2.428,4.458,4.458,0,0,1,2.432-.767H69a3.835,3.835,0,0,1,2.934,1.15,2.916,2.916,0,0,1,.926,2.045Z" transform="translate(4.604 18.053)" fill="#fff" fill-rule="evenodd"/>
        <path id="Path_38" data-name="Path 38" d="M100.3,109.146H85.824v12.78H81.958v-12.78H67.484a2.8,2.8,0,0,1,1.428-2.428,4.466,4.466,0,0,1,2.433-.767H96.437a3.835,3.835,0,0,1,2.934,1.15A2.918,2.918,0,0,1,100.3,109.146Z" transform="translate(13.813 18.053)" fill="#fff" fill-rule="evenodd"/>
        <path id="Path_39" data-name="Path 39" d="M127.724,118.731a2.807,2.807,0,0,1-1.389,2.428,4.333,4.333,0,0,1-2.431.767H94.923V105.951h28.942a3.855,3.855,0,0,1,2.933,1.182,2.962,2.962,0,0,1,.926,2.013H98.79v3.195h28.934v3.2H98.79v3.195Z" transform="translate(23.021 18.053)" fill="#fff" fill-rule="evenodd"/>
        <path id="Path_40" data-name="Path 40" d="M151.3,112.34v-3.195H126.228v3.195Zm3.859,9.595-3.852-.009-3.859-6.389H126.228v6.389h-3.865v-12.78a2.838,2.838,0,0,1,1.119-2.268,4.149,4.149,0,0,1,2.741-.927h25.088a3.861,3.861,0,0,1,2.938,1.183,2.963,2.963,0,0,1,.927,2.014v3.2a2.781,2.781,0,0,1-1.145,2.319,4.352,4.352,0,0,1-2.734.879Z" transform="translate(32.23 18.053)" fill="#fff" fill-rule="evenodd"/>
        <rect id="Rectangle_77" data-name="Rectangle 77" width="3.866" height="15.976" transform="translate(191.241 124.004)" fill="#fff"/>
        <path id="Path_41" data-name="Path 41" d="M184.539,118.731v-9.586H159.458v9.586Zm3.867,0a2.79,2.79,0,0,1-1.428,2.428,4.465,4.465,0,0,1-2.432.767H159.452a3.835,3.835,0,0,1-2.934-1.15,2.916,2.916,0,0,1-.927-2.045v-9.586a2.785,2.785,0,0,1,1.39-2.46,4.406,4.406,0,0,1,2.471-.735h25.093a3.83,3.83,0,0,1,2.933,1.15,2.913,2.913,0,0,1,.927,2.045Z" transform="translate(43.381 18.053)" fill="#fff" fill-rule="evenodd"/>
        <path id="Path_42" data-name="Path 42" d="M211.972,112.34v-3.195H186.9v3.195Zm3.859,9.595-3.852-.009-3.859-6.389H186.9v6.389h-3.865v-12.78a2.837,2.837,0,0,1,1.119-2.268,4.151,4.151,0,0,1,2.741-.927h25.088a3.861,3.861,0,0,1,2.938,1.183,2.963,2.963,0,0,1,.927,2.014v3.2a2.781,2.781,0,0,1-1.145,2.319,4.352,4.352,0,0,1-2.734.879Z" transform="translate(52.59 18.053)" fill="#fff" fill-rule="evenodd"/>
        <path id="Path_43" data-name="Path 43" d="M243.284,118.731a2.792,2.792,0,0,1-1.429,2.428,4.458,4.458,0,0,1-2.432.767H214.331a3.827,3.827,0,0,1-2.973-1.182,2.941,2.941,0,0,1-.888-2.013h28.948v-3.195H214.33a3.853,3.853,0,0,1-2.933-1.182,2.961,2.961,0,0,1-.927-2.014v-3.195a2.785,2.785,0,0,1,1.39-2.46,4.4,4.4,0,0,1,2.471-.735h25.092a3.835,3.835,0,0,1,2.934,1.15,2.913,2.913,0,0,1,.927,2.045H214.337v3.195h25.088a3.83,3.83,0,0,1,2.933,1.151,2.908,2.908,0,0,1,.927,2.045Z" transform="translate(61.798 18.053)" fill="#fff" fill-rule="evenodd"/>
      </g>
    </g>
  </g>
</svg>
