<svg xmlns="http://www.w3.org/2000/svg" width="143.85" height="90.435" viewBox="0 0 143.85 90.435">
  <g id="Group_186" data-name="Group 186" transform="translate(-1399.626 -2762.961)">
    <g id="Group_96" data-name="Group 96" transform="translate(1399.626 2762.961)">
      <g id="Group_95" data-name="Group 95" transform="translate(0 0)">
        <g id="Rectangle_92" data-name="Rectangle 92" transform="translate(53.857 31.927) rotate(90)" fill="#fff" stroke="#707070" stroke-width="10">
          <rect width="27.383" height="53.857" stroke="none"/>
          <rect x="5" y="5" width="17.383" height="43.857" fill="none"/>
        </g>
        <g id="Path_70" data-name="Path 70" transform="translate(90.169 0) rotate(90)" fill="#fff">
          <path d="M 45.05900573730469 54.09548187255859 C 40.84403991699219 54.09548187255859 36.8878059387207 53.40924835205078 33.30020523071289 52.05584716796875 C 30.04827308654785 50.82908248901367 26.99732398986816 49.0157470703125 24.23210716247559 46.66621398925781 C 19.37017440795898 42.53516387939453 15.24922370910645 36.66716384887695 11.98372364044189 29.2252311706543 C 8.90034008026123 22.19833183288574 7.185873508453369 15.08791542053223 6.290556907653809 10.36038208007812 C 5.916637897491455 8.385984420776367 5.645560264587402 6.630857467651367 5.451444625854492 5.167493343353271 C 11.51628303527832 5.072824001312256 23.30671119689941 4.999998092651367 41.19334030151367 4.999998092651367 C 59.39619827270508 4.999998092651367 76.45906066894531 5.08114767074585 84.73723602294922 5.193813323974609 C 84.41114044189453 7.39100456237793 83.94087219238281 10.13619995117188 83.25344085693359 13.21714878082275 C 81.73783874511719 20.00973129272461 79.68079376220703 26.13946533203125 77.139404296875 31.43608093261719 C 73.86310577392578 38.26439666748047 69.81024169921875 43.62674713134766 65.09340667724609 47.37421417236328 C 62.42960739135742 49.49056625366211 59.50064086914062 51.12604904174805 56.38785552978516 52.23524856567383 C 52.96509170532227 53.45491409301758 49.20200729370117 54.0806999206543 45.20315551757812 54.09521484375 C 45.1556396484375 54.09538269042969 45.10640716552734 54.09548187255859 45.05900573730469 54.09548187255859 Z" stroke="none"/>
          <path d="M 41.19276428222656 10 C 28.01239776611328 10 18.07920074462891 10.04119873046875 11.37746429443359 10.10023880004883 C 14.18099212646484 24.29549789428711 22.35799407958984 49.09540939331055 45.18500137329102 49.09523773193359 C 66.53774261474609 49.0177001953125 75.23777008056641 27.69669532775879 78.77928924560547 10.13078689575195 C 70.04891204833984 10.05527114868164 56.71389389038086 10 41.19276428222656 10 M 41.19275665283203 0 C 65.16603851318359 0 90.65744781494141 0.1425895690917969 90.43337249755859 0.3712158203125 C 90.01184844970703 0.8013038635253906 86.96300506591797 58.94360733032227 45.22130584716797 59.09517288208008 C 3.478416442871094 59.24674224853516 -0.2188644409179688 0.9270210266113281 0.00923919677734375 0.3712158203125 C 0.1160888671875 0.1108436584472656 20.06576538085938 0 41.19275665283203 0 Z" stroke="none" fill="#707070"/>
        </g>
      </g>
    </g>
    <path id="Path_71" data-name="Path 71" d="M-469.279,2893.613s9.226-13.75,17.377,0,18.423,0,18.423,0,8.779-13.941,18.312,0" transform="translate(1954.515 -103.214)" fill="none" stroke="#707070" stroke-width="10"/>
    <path id="Path_72" data-name="Path 72" d="M-469.279,2893.613s9.226-13.75,17.377,0,18.423,0,18.423,0,8.779-13.941,18.312,0" transform="translate(1954.515 -85.392)" fill="none" stroke="#707070" stroke-width="10"/>
    <path id="Path_73" data-name="Path 73" d="M-469.279,2893.613s9.226-13.75,17.377,0,18.423,0,18.423,0,8.779-13.941,18.312,0" transform="translate(1954.515 -66.929)" fill="none" stroke="#707070" stroke-width="10"/>
  </g>
</svg>
